<svg xmlns="http://www.w3.org/2000/svg" xmlns:xlink="http://www.w3.org/1999/xlink" width="52" height="52" version="1.1" viewBox="0 0 52 52"><title>checkbox-off</title><path id="Combined-Shape" d="M4,2.0065993 L4,2.0065993 L4,49.9934007 C4,48.8910287 3.1102492,48 2.0065993,48 L49.9934007,48 C48.8910287,48 48,48.8897508 48,49.9934007 L48,2.0065993 C48,3.1089713 48.8897508,4 49.9934007,4 L2.0065993,4 C3.1089713,4 4,3.1102492 4,2.0065993 L4,2.0065993 L4,2.0065993 L4,2.0065993 Z M0,2.0065993 C0,0.8983851 0.9025574,0 2.0065993,0 L49.9934007,0 C51.1016149,0 52,0.9025574 52,2.0065993 L52,49.9934007 C52,51.1016149 51.0974426,52 49.9934007,52 L2.0065993,52 C0.8983851,52 0,51.0974426 0,49.9934007 L0,2.0065993 L0,2.0065993 L0,2.0065993 L0,2.0065993 Z"/></svg>