<svg xmlns="http://www.w3.org/2000/svg" xmlns:xlink="http://www.w3.org/1999/xlink" width="162" height="162" version="1.1" viewBox="0 0 162 162"><title>compass-outer</title><desc>Created with Sketch.</desc><g id="Page-1" fill-rule="evenodd" stroke="none" stroke-width="1"><g id="compass-outer" fill-rule="nonzero"><path id="Oval-108" d="M80.8410544,161.682109 C36.1937731,161.682109 0,125.488336 0,80.8410544 C0,36.1937731 36.1937731,0 80.8410544,0 C125.488336,0 161.682109,36.1937731 161.682109,80.8410544 C161.682109,125.488336 125.488336,161.682109 80.8410544,161.682109 Z M81.1836011,134.620909 C110.696211,134.620909 134.620909,110.696211 134.620909,81.1836011 C134.620909,51.6709916 110.696211,27.7462941 81.1836011,27.7462941 C51.6709916,27.7462941 27.7462941,51.6709916 27.7462941,81.1836011 C27.7462941,110.696211 51.6709916,134.620909 81.1836011,134.620909 Z"/><circle id="Oval-74" cx="129.494" cy="127.952" r="1.542" fill="#FFF"/><circle id="Oval-74-Copy-3" cx="129.494" cy="35.457" r="1.542" fill="#FFF"/><circle id="Oval-74-Copy-5" cx="30.832" cy="127.952" r="1.542" fill="#FFF"/><circle id="Oval-74-Copy-4" cx="30.832" cy="35.457" r="1.542" fill="#FFF"/><polygon id="N" fill="#FFF" points="84.932 23.124 84.932 13.132 82.562 13.132 82.562 19.298 77.952 13.132 75.711 13.132 75.711 23.124 78.095 23.124 78.095 16.972 82.691 23.124"/><polygon id="Line" fill="#FFF" points="143.368 82.109 152.618 82.109 152.618 81.299 143.368 81.299"/><polygon id="Line-Copy-8" fill="#FFF" points="9.25 82.109 18.499 82.109 18.499 81.299 9.25 81.299"/><polygon id="Line" fill="#FFF" points="81.299 143.368 81.299 152.618 82.109 152.618 82.109 143.368"/></g></g></svg>