<svg xmlns="http://www.w3.org/2000/svg" xmlns:xlink="http://www.w3.org/1999/xlink" width="50" height="35" version="1.1" viewBox="0 0 50 35"><title>measure</title><desc>Created with Sketch.</desc><g id="Page-1" fill-rule="evenodd" stroke="none" stroke-width="1"><g id="measure" fill-rule="nonzero"><polygon id="Line-Copy-13" points="23.764 23.466 23.764 34.451 26.236 34.451 26.236 23.466"/><polygon id="Line-Copy-14" points="9.71 23.466 9.71 34.451 12.182 34.451 12.182 23.466"/><polygon id="Line-Copy-15" points="16.737 23.466 16.737 31.22 19.209 31.22 19.209 23.466"/><polygon id="Line-Copy-20" points="2.683 23.466 2.683 31.22 5.155 31.22 5.155 23.466"/><polygon id="Line-Copy-17" points="37.818 23.466 37.818 34.451 40.29 34.451 40.29 23.466"/><polygon id="Line-Copy-19" points="30.791 23.466 30.791 31.22 33.263 31.22 33.263 23.466"/><polygon id="Line-Copy-21" points="44.845 23.466 44.845 31.22 47.317 31.22 47.317 23.466"/><path id="Oval-46" d="M41.0709748,16.9977683 C36.4145825,16.9977683 32.6398306,13.2230164 32.6398306,8.56662405 C32.6398306,3.91023166 36.4145825,0.1354798 41.0709748,0.1354798 C45.7273672,0.1354798 49.5021191,3.91023166 49.5021191,8.56662405 C49.5021191,13.2230164 45.7273672,16.9977683 41.0709748,16.9977683 Z M41.0709748,12.4977683 C43.2420859,12.4977683 45.0021191,10.7377351 45.0021191,8.56662405 C45.0021191,6.39551303 43.2420859,4.6354798 41.0709748,4.6354798 C38.8998638,4.6354798 37.1398306,6.39551303 37.1398306,8.56662405 C37.1398306,10.7377351 38.8998638,12.4977683 41.0709748,12.4977683 Z"/><path id="Oval-46-Copy" d="M8.92902475,16.9977683 C4.27263236,16.9977683 0.4978805,13.2230164 0.4978805,8.56662405 C0.4978805,3.91023166 4.27263236,0.1354798 8.92902475,0.1354798 C13.5854171,0.1354798 17.360169,3.91023166 17.360169,8.56662405 C17.360169,13.2230164 13.5854171,16.9977683 8.92902475,16.9977683 Z M8.92902475,12.4977683 C11.1001358,12.4977683 12.860169,10.7377351 12.860169,8.56662405 C12.860169,6.39551303 11.1001358,4.6354798 8.92902475,4.6354798 C6.75791373,4.6354798 4.9978805,6.39551303 4.9978805,8.56662405 C4.9978805,10.7377351 6.75791373,12.4977683 8.92902475,12.4977683 Z"/><polygon id="Line" points="33.263 7.005 16.737 7.005 16.737 9.478 33.263 9.478"/></g></g></svg>