<svg xmlns="http://www.w3.org/2000/svg" xmlns:xlink="http://www.w3.org/1999/xlink" width="52" height="52" version="1.1" viewBox="0 0 52 52"><title>radio-off</title><path id="Shape" d="M26,48.4137931 L26,48.4137931 C38.3787961,48.4137931 48.4137931,38.3787961 48.4137931,26 C48.4137931,13.6212039 38.3787961,3.5862069 26,3.5862069 C13.6212039,3.5862069 3.5862069,13.6212039 3.5862069,26 C3.5862069,38.3787961 13.6212039,48.4137931 26,48.4137931 L26,48.4137931 L26,48.4137931 Z M26,52 L26,52 C11.6405965,52 0,40.3594035 0,26 C0,11.6405965 11.6405965,0 26,0 C40.3594035,0 52,11.6405965 52,26 C52,40.3594035 40.3594035,52 26,52 L26,52 L26,52 Z"/></svg>