<svg xmlns="http://www.w3.org/2000/svg" xmlns:xlink="http://www.w3.org/1999/xlink" width="100" height="100" version="1.1" viewBox="0 0 100 100"><title>map-location</title><desc>Created with Sketch.</desc><g id="Page-2" fill="none" fill-rule="evenodd" stroke="none" stroke-width="1"><g id="map-location"><rect id="bounds" width="100" height="100" x="0" y="0"/><g id="Group" transform="translate(22.000000, 10.000000)"><path id="Oval-30" fill="#000" d="M28,80 C29.3333333,80 56,53.3333333 56,28 C56,12.536027 43.463973,0 28,0 C12.536027,0 6.62826319e-16,12.536027 0,28 C0,53.3333333 26.6666667,80.0392049 28,80 Z"/><path id="Oval-31" fill="#FFF" d="M27.9983342,47.9966685 C39.0431093,47.9966685 47.9966685,39.0431093 47.9966685,27.9983342 C47.9966685,16.9535592 39.0431093,8 27.9983342,8 C16.9535592,8 8,16.9535592 8,27.9983342 C8,39.0431093 16.9535592,47.9966685 27.9983342,47.9966685 L27.9983342,47.9966685 Z M27.9983342,41.3300018 C20.6354576,41.3300018 14.6666667,35.3612109 14.6666667,27.9983342 C14.6666667,20.6354576 20.6354576,14.6666667 27.9983342,14.6666667 C35.3612109,14.6666667 41.3300018,20.6354576 41.3300018,27.9983342 C41.3300018,35.3612109 35.3612109,41.3300018 27.9983342,41.3300018 L27.9983342,41.3300018 Z"/></g></g></g></svg>